<?xml version="1.0" encoding="UTF-8"?>
<svg version="1.1" xmlns="http://www.w3.org/2000/svg" width="200" height="97">
<path d="M0 0 C66 0 132 0 200 0 C200 32.01 200 64.02 200 97 C134 97 68 97 0 97 C0 64.99 0 32.98 0 0 Z " fill="#FDFDFD" transform="translate(0,0)"/>
<path d="M0 0 C9.52184953 6.53243166 17.12080936 15.90246288 19.77734375 27.35546875 C20.0625 29.5625 20.0625 29.5625 20.1875 32.8125 C21.1775 32.895 22.1675 32.9775 23.1875 33.0625 C29.60536116 33.98490515 35.57108169 37.32084975 40.1875 41.8125 C45.8856379 49.77052262 46.80188574 56.05188131 46.1875 65.8125 C44.84051336 73.25182069 40.02386509 78.93700557 34.08203125 83.390625 C28.61189982 86.7598387 23.55917992 87.6661775 17.1875 87.8125 C17.1875 87.1525 17.1875 86.4925 17.1875 85.8125 C17.86296875 85.63074219 18.5384375 85.44898437 19.234375 85.26171875 C20.12640625 85.01035156 21.0184375 84.75898437 21.9375 84.5 C22.81921875 84.25636719 23.7009375 84.01273437 24.609375 83.76171875 C27.24950695 82.78967017 28.98226522 81.52395395 31.1875 79.8125 C31.8475 79.8125 32.5075 79.8125 33.1875 79.8125 C33.47367188 79.235 33.75984375 78.6575 34.0546875 78.0625 C34.7639571 76.65374382 35.49515227 75.25558202 36.2578125 73.875 C39.76765552 67.01130698 40.64931242 59.97641724 38.52734375 52.48046875 C35.6747153 46.02192036 30.8043872 42.14389875 24.625 39 C21.44275248 37.90067813 18.50345451 37.31942713 15.1875 36.8125 C15.04054687 36.06226563 14.89359375 35.31203125 14.7421875 34.5390625 C12.42651066 23.97212338 8.0236614 14.46809855 -0.8125 7.8125 C-13.21707786 0.58345261 -25.90846365 -2.82175584 -40.125 0.875 C-50.98457833 4.78737334 -59.89238573 11.83627262 -65.1875 22.125 C-66.22413484 24.34700424 -67.03392951 26.47678852 -67.8125 28.8125 C-68.658125 28.88726562 -69.50375 28.96203125 -70.375 29.0390625 C-78.01908498 29.92508144 -83.39748847 31.1681468 -88.8125 36.8125 C-89.43318359 37.77736328 -89.43318359 37.77736328 -90.06640625 38.76171875 C-91.5317393 41.02632438 -92.51875795 42.35206498 -94.8125 43.8125 C-98.21694924 44.0603614 -101.44140402 43.99654865 -104.84106445 43.83544922 C-109.96438749 43.64677328 -113.21160219 44.02025924 -117.265625 47.1953125 C-122.1955585 52.34933389 -123.99942067 56.70875425 -124.8125 63.8125 C-102.88596991 64.4037159 -83.54729851 62.26329224 -64.44921875 50.6953125 C-62.8125 49.8125 -62.8125 49.8125 -60.8125 49.8125 C-60.8125 49.1525 -60.8125 48.4925 -60.8125 47.8125 C-65.4325 47.8125 -70.0525 47.8125 -74.8125 47.8125 C-71.6955222 45.7345148 -69.78464397 45.23652893 -66.15625 44.5234375 C-64.49916016 44.19472656 -64.49916016 44.19472656 -62.80859375 43.859375 C-61.65488281 43.63765625 -60.50117187 43.4159375 -59.3125 43.1875 C-58.15878906 42.95804688 -57.00507812 42.72859375 -55.81640625 42.4921875 C-47.24800037 40.8125 -47.24800037 40.8125 -43.8125 40.8125 C-45.42554539 46.33595846 -47.10901299 51.83595601 -48.875 57.3125 C-49.19597656 58.3128125 -49.51695313 59.313125 -49.84765625 60.34375 C-50.8125 62.8125 -50.8125 62.8125 -52.8125 64.8125 C-52.8125 61.8425 -52.8125 58.8725 -52.8125 55.8125 C-53.781875 56.19921875 -54.75125 56.5859375 -55.75 56.984375 C-78.29784701 65.81102526 -100.65763274 69.03314897 -124.8125 65.8125 C-121.46572539 76.72121576 -121.46572539 76.72121576 -112.8125 83.8125 C-109.84007879 84.67217084 -106.86228993 85.29742437 -103.8125 85.8125 C-103.8125 86.1425 -103.8125 86.4725 -103.8125 86.8125 C-110.86022499 87.60702432 -115.20496019 86.74916732 -120.90625 82.453125 C-126.23483932 77.86704402 -129.28971138 72.77223561 -130.20703125 65.82421875 C-130.61665934 57.717393 -129.26458321 51.95163435 -123.8125 45.8125 C-118.3242486 41.23895717 -113.59345981 38.66791124 -106.375 38.6875 C-104.95380859 38.68363281 -104.95380859 38.68363281 -103.50390625 38.6796875 C-101.11109541 38.79776525 -99.09913847 39.13137365 -96.8125 39.8125 C-96.585625 39.255625 -96.35875 38.69875 -96.125 38.125 C-92.94627247 32.52438482 -87.6045555 28.47551402 -81.8125 25.8125 C-79.77688842 25.40591267 -77.73445569 25.03246403 -75.6875 24.6875 C-71.96212984 23.87316029 -70.31618238 23.4473063 -67.921875 20.4296875 C-66.9275071 18.50898739 -65.98209579 16.56219018 -65.0859375 14.59375 C-61.19702326 6.10017042 -53.27207421 0.20603518 -44.86328125 -3.48046875 C-42.19579096 -4.46697718 -39.53841512 -5.37756356 -36.8125 -6.1875 C-36.17957031 -6.37957031 -35.54664062 -6.57164062 -34.89453125 -6.76953125 C-22.60776081 -9.23610618 -10.61054484 -6.28448248 0 0 Z " fill="#88888A" transform="translate(140.8125,7.1875)"/>
<path d="M0 0 C8.62063528 6.78875029 15.93555945 16.57787454 17.375 27.71875 C17.41625 28.79125 17.4575 29.86375 17.5 30.96875 C18.49 31.05125 19.48 31.13375 20.5 31.21875 C26.91786116 32.14115515 32.88358169 35.47709975 37.5 39.96875 C43.1981379 47.92677262 44.11438574 54.20813131 43.5 63.96875 C42.15301336 71.40807069 37.33636509 77.09325557 31.39453125 81.546875 C25.92439982 84.9160887 20.87167992 85.8224275 14.5 85.96875 C14.5 85.30875 14.5 84.64875 14.5 83.96875 C15.17546875 83.78699219 15.8509375 83.60523437 16.546875 83.41796875 C17.43890625 83.16660156 18.3309375 82.91523437 19.25 82.65625 C20.13171875 82.41261719 21.0134375 82.16898437 21.921875 81.91796875 C24.56200695 80.94592017 26.29476522 79.68020395 28.5 77.96875 C29.16 77.96875 29.82 77.96875 30.5 77.96875 C30.78617187 77.39125 31.07234375 76.81375 31.3671875 76.21875 C32.0764571 74.80999382 32.80765227 73.41183202 33.5703125 72.03125 C37.08015552 65.16755698 37.96181242 58.13266724 35.83984375 50.63671875 C32.9872153 44.17817036 28.1168872 40.30014875 21.9375 37.15625 C18.75525248 36.05692813 15.81595451 35.47567713 12.5 34.96875 C12.35304687 34.21851563 12.20609375 33.46828125 12.0546875 32.6953125 C9.73901066 22.12837338 5.3361614 12.62434855 -3.5 5.96875 C-7.39119947 3.70106578 -11.35664524 1.73199583 -15.5 -0.03125 C-16.37785156 -0.41410156 -17.25570312 -0.79695312 -18.16015625 -1.19140625 C-23.06832964 -2.42562529 -27.83728304 -2.24075364 -32.875 -2.15625 C-34.40833984 -2.14271484 -34.40833984 -2.14271484 -35.97265625 -2.12890625 C-38.48201522 -2.1054543 -40.99088336 -2.07263355 -43.5 -2.03125 C-42.84 -3.35125 -42.18 -4.67125 -41.5 -6.03125 C-42.16 -6.36125 -42.82 -6.69125 -43.5 -7.03125 C-28.31203699 -11.89139816 -13.02623509 -8.93660315 0 0 Z " fill="#868688" transform="translate(143.5,9.03125)"/>
<path d="M0 0 C-1.61304539 5.52345846 -3.29651299 11.02345601 -5.0625 16.5 C-5.38347656 17.5003125 -5.70445313 18.500625 -6.03515625 19.53125 C-7 22 -7 22 -9 24 C-9 21.03 -9 18.06 -9 15 C-9.969375 15.38671875 -10.93875 15.7734375 -11.9375 16.171875 C-28.28628116 22.57181968 -43.59373957 26.02983 -61.1875 26.125 C-62.04375977 26.12983398 -62.90001953 26.13466797 -63.78222656 26.13964844 C-68.62732618 26.1264568 -73.22274016 25.81452603 -78 25 C-78 24.67 -78 24.34 -78 24 C-76.22109375 23.94392578 -76.22109375 23.94392578 -74.40625 23.88671875 C-55.00937443 23.15479922 -37.47740497 20.08345673 -20.63671875 9.8828125 C-19 9 -19 9 -17 9 C-17 8.34 -17 7.68 -17 7 C-21.62 7 -26.24 7 -31 7 C-27.8830222 4.9220148 -25.97214397 4.42402893 -22.34375 3.7109375 C-21.23902344 3.49179687 -20.13429687 3.27265625 -18.99609375 3.046875 C-17.84238281 2.82515625 -16.68867187 2.6034375 -15.5 2.375 C-13.76943359 2.03082031 -13.76943359 2.03082031 -12.00390625 1.6796875 C-3.43550037 0 -3.43550037 0 0 0 Z " fill="#336592" transform="translate(97,48)"/>
<path d="M0 0 C-0.33 1.65 -0.66 3.3 -1 5 C-10.41480851 7.61522459 -19.45219186 8.08789628 -29.1875 8.125 C-30.47092285 8.13200928 -30.47092285 8.13200928 -31.78027344 8.13916016 C-36.62610444 8.12691845 -41.22206417 7.81464129 -46 7 C-46 6.67 -46 6.34 -46 6 C-44.8140625 5.96261719 -43.628125 5.92523438 -42.40625 5.88671875 C-30.19680096 5.42253901 -17.67850559 4.80461676 -6.1875 0.25 C-3 -1 -3 -1 0 0 Z " fill="#416D98" transform="translate(65,66)"/>
<path d="M0 0 C-0.33 1.65 -0.66 3.3 -1 5 C-3.31 4.34 -5.62 3.68 -8 3 C-8 3.66 -8 4.32 -8 5 C-9.32 5 -10.64 5 -12 5 C-11.34 6.98 -10.68 8.96 -10 11 C-17.625 12.25 -17.625 12.25 -21 10 C-19.68 9.67 -18.36 9.34 -17 9 C-17 8.34 -17 7.68 -17 7 C-21.62 7 -26.24 7 -31 7 C-27.8830222 4.9220148 -25.97214397 4.42402893 -22.34375 3.7109375 C-21.23902344 3.49179687 -20.13429688 3.27265625 -18.99609375 3.046875 C-17.84238281 2.82515625 -16.68867187 2.6034375 -15.5 2.375 C-14.34628906 2.14554688 -13.19257812 1.91609375 -12.00390625 1.6796875 C-3.43550037 0 -3.43550037 0 0 0 Z " fill="#2F6698" transform="translate(97,48)"/>
<path d="M0 0 C2.97 0.495 2.97 0.495 6 1 C6 1.66 6 2.32 6 3 C4.68 3.33 3.36 3.66 2 4 C1.67 6.31 1.34 8.62 1 11 C-2.3 11 -5.6 11 -9 11 C-9.33 11.99 -9.66 12.98 -10 14 C-12.31 14 -14.62 14 -17 14 C-17 13.34 -17 12.68 -17 12 C-15.35 11.67 -13.7 11.34 -12 11 C-12.33 10.01 -12.66 9.02 -13 8 C-10.36 8.33 -7.72 8.66 -5 9 C-3.8509288 7.0745356 -3.8509288 7.0745356 -4 5 C-4 4.01 -4 3.02 -4 2 C-2.68 2 -1.36 2 0 2 C0 1.34 0 0.68 0 0 Z " fill="#24649A" transform="translate(89,51)"/>
<path d="M0 0 C0.66 1.32 1.32 2.64 2 4 C1.61328125 4.4846875 1.2265625 4.969375 0.828125 5.46875 C-3.42722568 10.94593404 -6.79999074 16.39997222 -9 23 C-10.65 23 -12.3 23 -14 23 C-16 19.125 -16 19.125 -16 18 C-15.236875 17.94199219 -14.47375 17.88398438 -13.6875 17.82421875 C-10.82308325 17.24491209 -10.82308325 17.24491209 -9.375 14.70703125 C-8.92125 13.75183594 -8.4675 12.79664063 -8 11.8125 C-5.72623954 7.28854136 -3.41670896 3.71818328 0 0 Z " fill="#89898B" transform="translate(82,13)"/>
<path d="M0 0 C0.33 0.99 0.66 1.98 1 3 C0.34 3 -0.32 3 -1 3 C-0.78472656 3.55171875 -0.56945312 4.1034375 -0.34765625 4.671875 C0.13032974 7.87276996 -0.91737914 9.43221498 -2.4375 12.25 C-2.91058594 13.14203125 -3.38367188 14.0340625 -3.87109375 14.953125 C-4.24363281 15.62859375 -4.61617187 16.3040625 -5 17 C-5.66 17 -6.32 17 -7 17 C-7.33 17.99 -7.66 18.98 -8 20 C-8.60659385 13.4218267 -8.14589981 9.10270002 -4.38671875 3.59375 C-3 2 -3 2 0 0 Z " fill="#8A8A8C" transform="translate(19,53)"/>
<path d="M0 0 C3.81585614 -0.09784247 5.43415799 -0.07254051 8.6953125 2.1015625 C5.89249105 3.03583632 4.17224332 3.23017035 1.2734375 3.234375 C0.41234375 3.23566406 -0.44875 3.23695312 -1.3359375 3.23828125 C-2.233125 3.23441406 -3.1303125 3.23054688 -4.0546875 3.2265625 C-4.93640625 3.23042969 -5.818125 3.23429687 -6.7265625 3.23828125 C-11.69348835 3.23088999 -16.40882443 2.94429303 -21.3046875 2.1015625 C-21.3046875 1.7715625 -21.3046875 1.4415625 -21.3046875 1.1015625 C-18.30481757 0.932215 -15.30482658 0.76601457 -12.3046875 0.6015625 C-11.46550781 0.55386719 -10.62632813 0.50617188 -9.76171875 0.45703125 C-6.50869217 0.28051043 -3.25459339 0.14342276 0 0 Z " fill="#396383" transform="translate(40.3046875,70.8984375)"/>
<path d="M0 0 C3.3 0 6.6 0 10 0 C10 0.66 10 1.32 10 2 C8.21118264 3.00508801 6.41885304 4.00392736 4.625 5 C3.62726563 5.556875 2.62953125 6.11375 1.6015625 6.6875 C-1 8 -1 8 -3 8 C-2 5 -2 5 1 3 C0.67 2.01 0.34 1.02 0 0 Z " fill="#E9F7FB" transform="translate(70,55)"/>
<path d="M0 0 C0.5625 1.9375 0.5625 1.9375 1 4 C0 5 0 5 -3.125 5.1875 C-7.17245263 4.99165552 -10.17631673 4.24854964 -14 3 C-14 2.67 -14 2.34 -14 2 C-12.04200486 1.66468585 -10.08359226 1.33180857 -8.125 1 C-6.48917969 0.7215625 -6.48917969 0.7215625 -4.8203125 0.4375 C-2 0 -2 0 0 0 Z " fill="#446F97" transform="translate(56,68)"/>
<path d="M0 0 C-0.99 0.495 -0.99 0.495 -2 1 C-2 1.66 -2 2.32 -2 3 C-10.25 2.67 -18.5 2.34 -27 2 C-27 1.67 -27 1.34 -27 1 C-24.00013007 0.8306525 -21.00013908 0.66445207 -18 0.5 C-17.16082031 0.45230469 -16.32164063 0.40460938 -15.45703125 0.35546875 C-10.29532696 0.07537627 -5.16925753 -0.0478635 0 0 Z " fill="#DFF2F9" transform="translate(54,73)"/>
<path d="M0 0 C0.66 0 1.32 0 2 0 C2 1.65 2 3.3 2 5 C3.65 5 5.3 5 7 5 C4.83704973 7.16295027 3.94755143 7.5534013 1 8 C0.01 7.67 -0.98 7.34 -2 7 C-2.33 7.66 -2.66 8.32 -3 9 C-2.5020163 5.26512223 -2.12508244 3.18762365 0 0 Z " fill="#919193" transform="translate(159,35)"/>
<path d="M0 0 C1.77007714 -0.08114106 3.54122098 -0.13925505 5.3125 -0.1875 C6.29863281 -0.22230469 7.28476562 -0.25710937 8.30078125 -0.29296875 C11 0 11 0 12.85546875 1.51171875 C13.23316406 2.00285156 13.61085938 2.49398437 14 3 C12.22925083 3.02705729 10.45838289 3.04642195 8.6875 3.0625 C7.70136719 3.07410156 6.71523438 3.08570313 5.69921875 3.09765625 C3 3 3 3 0 2 C0 1.34 0 0.68 0 0 Z " fill="#878789" transform="translate(29,46)"/>
<path d="M0 0 C0 0.66 0 1.32 0 2 C-4.62 2 -9.24 2 -14 2 C-9.35676153 -1.09549231 -5.35112092 -1.41647318 0 0 Z " fill="#547590" transform="translate(80,53)"/>
<path d="M0 0 C-0.33 1.65 -0.66 3.3 -1 5 C-2.4800841 4.88637738 -3.95910074 4.75877092 -5.4375 4.625 C-6.26121094 4.55539063 -7.08492188 4.48578125 -7.93359375 4.4140625 C-8.61550781 4.27742188 -9.29742187 4.14078125 -10 4 C-10.33 3.34 -10.66 2.68 -11 2 C-3.375 0 -3.375 0 0 0 Z " fill="#476E92" transform="translate(97,48)"/>
<path d="M0 0 C-0.33 1.65 -0.66 3.3 -1 5 C-2.65 5 -4.3 5 -6 5 C-8 1.125 -8 1.125 -8 0 C-4.71303767 -0.79953138 -3.28976808 -1.09658936 0 0 Z " fill="#9C9C9D" transform="translate(74,31)"/>
<path d="M0 0 C0.33 0 0.66 0 1 0 C1 1.65 1 3.3 1 5 C2.32 5.33 3.64 5.66 5 6 C4.360625 6.103125 3.72125 6.20625 3.0625 6.3125 C2.381875 6.539375 1.70125 6.76625 1 7 C0.67 7.99 0.34 8.98 0 10 C-0.33 10 -0.66 10 -1 10 C-2.23076923 4.58461538 -2.23076923 4.58461538 -1.0625 1.625 C-0.5365625 0.820625 -0.5365625 0.820625 0 0 Z " fill="#8D969C" transform="translate(15,66)"/>
<path d="M0 0 C-0.33 0.99 -0.66 1.98 -1 3 C-5.39529916 4.98834962 -9.22037853 5.19118486 -14 5 C-9.89892226 2.77858289 -4.73442329 0 0 0 Z " fill="#D4EAF3" transform="translate(82,65)"/>
<path d="M0 0 C1.32 0 2.64 0 4 0 C3.34 1.98 2.68 3.96 2 6 C1.34 6 0.68 6 0 6 C-0.33 6.99 -0.66 7.98 -1 9 C-0.67 6.03 -0.34 3.06 0 0 Z " fill="#7E8083" transform="translate(12,64)"/>
<path d="M0 0 C0.33 0.99 0.66 1.98 1 3 C0.34 3 -0.32 3 -1 3 C-0.773125 3.598125 -0.54625 4.19625 -0.3125 4.8125 C-0.209375 5.534375 -0.10625 6.25625 0 7 C-1.4375 8.75 -1.4375 8.75 -3 10 C-3.78260048 7.18263828 -4.19511109 5.54030762 -3.1875 2.75 C-2 1 -2 1 0 0 Z " fill="#808182" transform="translate(19,53)"/>
<path d="M0 0 C2.375 -0.1875 2.375 -0.1875 5 0 C5.66 0.99 6.32 1.98 7 3 C2.545 3.495 2.545 3.495 -2 4 C-1.34 2.68 -0.68 1.36 0 0 Z " fill="#7F7F81" transform="translate(65,32)"/>
<path d="M0 0 C2.4375 0.375 2.4375 0.375 5 1 C5.33 1.66 5.66 2.32 6 3 C3.6875 3.625 3.6875 3.625 1 4 C0.01 3.34 -0.98 2.68 -2 2 C-1.34 2 -0.68 2 0 2 C0 1.34 0 0.68 0 0 Z " fill="#2D6595" transform="translate(56,68)"/>
<path d="M0 0 C0.25 2.3125 0.25 2.3125 0 5 C-2 6.8125 -2 6.8125 -4 8 C-4 7.01 -4 6.02 -4 5 C-3.34 5 -2.68 5 -2 5 C-2 4.34 -2 3.68 -2 3 C-2.99 2.67 -3.98 2.34 -5 2 C-2 0 -2 0 0 0 Z " fill="#8D8D8E" transform="translate(54,37)"/>
<path d="M0 0 C0.99 0.33 1.98 0.66 3 1 C2.6875 2.9375 2.6875 2.9375 2 5 C1.01 5.33 0.02 5.66 -1 6 C-1 2 -1 2 0 0 Z " fill="#828184" transform="translate(141,9)"/>
<path d="M0 0 C0 0.33 0 0.66 0 1 C-3.3 1.33 -6.6 1.66 -10 2 C-10 1.34 -10 0.68 -10 0 C-6.42355152 -1.2380014 -3.66305234 -0.74926071 0 0 Z " fill="#9F9F9F" transform="translate(168,93)"/>
<path d="M0 0 C1.36511719 0.29197266 1.36511719 0.29197266 2.7578125 0.58984375 C3.45648438 0.74582031 4.15515625 0.90179688 4.875 1.0625 C4.875 1.3925 4.875 1.7225 4.875 2.0625 C3.25036158 2.11645478 1.62521459 2.15527195 0 2.1875 C-0.90492187 2.21070312 -1.80984375 2.23390625 -2.7421875 2.2578125 C-5.125 2.0625 -5.125 2.0625 -7.125 0.0625 C-4.4030754 -1.2984623 -2.9418043 -0.64116248 0 0 Z " fill="#949494" transform="translate(32.125,91.9375)"/>
<path d="M0 0 C0.33 0.99 0.66 1.98 1 3 C1.66 3.33 2.32 3.66 3 4 C2.525625 4.433125 2.05125 4.86625 1.5625 5.3125 C-0.23686957 7.02309613 -0.23686957 7.02309613 -1 10 C-1.66 10 -2.32 10 -3 10 C-2.01 6.7 -1.02 3.4 0 0 Z " fill="#D4E1EA" transform="translate(91,64)"/>
<path d="M0 0 C2.31 0 4.62 0 7 0 C7 0.66 7 1.32 7 2 C5.35 2.66 3.7 3.32 2 4 C1.34 2.68 0.68 1.36 0 0 Z " fill="#D6ECF9" transform="translate(73,55)"/>
<path d="M0 0 C-0.33 0.99 -0.66 1.98 -1 3 C-3.64 3.33 -6.28 3.66 -9 4 C-3.7826087 -0 -3.7826087 -0 0 0 Z " fill="#8D8E90" transform="translate(100,3)"/>
</svg>
